# xmcd
#
# Track frame offsets:
#	150
#	5707
#	22795
#	58604
#	81532
#	102223
#	127215
#	145944
#	161416
#	186716
#	209106
#	226007
#	244353
#	265942
#	279419
#	298936
#
# Disc length: 4436 seconds
#
# Revision: 0
# Processed by: cddbd v1.5.1PL2 Copyright (c) Steve Scherf et al.
# Submitted via: audiograbber 1.82.02
#
DISCID=f8115210
DTITLE=Various Artist - Alternativa Underground
DYEAR=1900
DGENRE=
TTITLE0=Abertura Alternativa
TTITLE1=Spiderman - DJ Jana Rush
TTITLE2=Every Shade Of Blue - Bananarama
TTITLE3=Que Idea 94 - Zentral
TTITLE4=Crazy Bitch - Dj Jana Rush
TTITLE5=El Loco - Bad Boy Orchestra
TTITLE6=The Dj - Dj Trajic
TTITLE7=Professional Window - Tori amos
TTITLE8=Soy tu Padre - Terra Wan
TTITLE9=Point - Point
TTITLE10=Don't Laught - Winx
TTITLE11=Trajic Style - Dj Trajic
TTITLE12=Some Sigh Say - House of Gypsies
TTITLE13=To the Three - SP 1200
TTITLE14=Stomp - Dj Trajic
TTITLE15=The Floor - Carl Craig
EXTD=
EXTT0=
EXTT1=
EXTT2=
EXTT3=
EXTT4=
EXTT5=
EXTT6=
EXTT7=
EXTT8=
EXTT9=
EXTT10=
EXTT11=
EXTT12=
EXTT13=
EXTT14=
EXTT15=
PLAYORDER=
